# xmcd
#
# Track frame offsets: 
#        150
#        15426
#        31676
#        47134
#        62953
#        79701
#        96394
#        112284
#        130474
#        147800
#        160962
#        178237
#
# Disc length: 2588 seconds
#
# Revision: 0
# Processed by: cddbd v1.5.2PL0 Copyright (c) Steve Scherf et al.
# Submitted via: ExactAudioCopy v0.95a4
#
DISCID=a70a1a0c
DTITLE=Luke Combs - This One's for You
DYEAR=2017
DGENRE=Country
TTITLE0=Out There
TTITLE1=Memories Are Made Of
TTITLE2=Lonely One
TTITLE3=Beer Can
TTITLE4=Hurricane
TTITLE5=One Number Away
TTITLE6=Don't Tempt Me
TTITLE7=When It Rains It Pours
TTITLE8=This One's for You
TTITLE9=Be Careful What You Wish For
TTITLE10=I Got Away with You
TTITLE11=Honky Tonk Highway
EXTD=
EXTT0=
EXTT1=
EXTT2=
EXTT3=
EXTT4=
EXTT5=
EXTT6=
EXTT7=
EXTT8=
EXTT9=
EXTT10=
EXTT11=
PLAYORDER=
